# Blender 4.4.0
# www.blender.org
mtllib Wall.mtl
o Cube
v 30.000000 15.000000 -0.500000
v 30.000000 -15.000000 -0.500000
v 30.000000 15.000000 0.500000
v 30.000000 -15.000000 0.500000
v -30.000000 15.000000 -0.500000
v -30.000000 -15.000000 -0.500000
v -30.000000 15.000000 0.500000
v -30.000000 -15.000000 0.500000
v -20.000000 -15.000000 0.500000
v -20.000000 -5.000000 0.500000
v -10.000000 -5.000000 0.500000
v -10.000000 -15.000000 0.500000
v -10.000000 -5.000000 -0.500000
v -20.000000 -5.000000 -0.500000
v -20.000000 -15.000000 -0.500000
v -10.000000 -15.000000 -0.500000
v 10.000000 -5.000000 0.500000
v 10.000000 -15.000000 0.500000
v 20.000000 -15.000000 0.500000
v 20.000000 -5.000000 0.500000
v 20.000000 -5.000000 -0.500000
v 10.000000 -5.000000 -0.500000
v 10.000000 -15.000000 -0.500000
v 20.000000 -15.000000 -0.500000
vn -0.0000 1.0000 -0.0000
vn -0.0000 -0.0000 1.0000
vn -1.0000 -0.0000 -0.0000
vn -0.0000 -1.0000 -0.0000
vn 1.0000 -0.0000 -0.0000
vn -0.0000 -0.0000 -1.0000
vt 0.875000 0.500000
vt 0.625000 0.750000
vt 0.625000 0.500000
vt 0.458333 0.916667
vt 0.458333 0.833333
vt 0.625000 0.000000
vt 0.375000 0.250000
vt 0.375000 0.000000
vt 0.208333 0.500000
vt 0.291667 0.750000
vt 0.208333 0.750000
vt 0.375000 0.750000
vt 0.333333 0.500000
vt 0.375000 0.500000
vt 0.125000 0.500000
vt 0.166667 0.750000
vt 0.125000 0.750000
vt 0.458333 0.333333
vt 0.625000 0.250000
vt 0.458333 0.416667
vt 0.000000 0.000000
vt 0.875000 0.750000
vt 0.458333 0.791667
vt 0.375000 0.791667
vt 0.625000 1.000000
vt 0.375000 1.000000
vt 0.375000 0.958333
vt 0.458333 0.958333
vt 0.375000 0.916667
vt 0.375000 0.833333
vt 0.291667 0.500000
vt 0.333333 0.750000
vt 0.166667 0.500000
vt 0.375000 0.416667
vt 0.375000 0.333333
vt 0.375000 0.458333
vt 0.458333 0.458333
vt 0.375000 0.291667
vt 0.458333 0.291667
s 0
usemtl Material
f 5/1/1 3/2/1 1/3/1
f 3/2/2 11/4/2 17/5/2
f 7/6/3 6/7/3 8/8/3
f 16/9/4 18/10/4 12/11/4
f 4/12/4 24/13/4 2/14/4
f 6/15/4 9/16/4 8/17/4
f 1/3/5 4/12/5 2/14/5
f 13/18/6 5/19/6 22/20/6
f 9/21/5 14/21/5 10/21/5
f 11/21/3 16/21/3 12/21/3
f 10/21/4 13/21/4 11/21/4
f 18/21/5 22/21/5 17/21/5
f 20/21/3 24/21/3 19/21/3
f 17/21/4 21/21/4 20/21/4
f 5/1/1 7/22/1 3/2/1
f 20/23/2 19/24/2 4/12/2
f 7/25/2 8/26/2 9/27/2
f 7/25/2 9/27/2 10/28/2
f 20/23/2 4/12/2 3/2/2
f 12/29/2 18/30/2 17/5/2
f 17/5/2 20/23/2 3/2/2
f 3/2/2 7/25/2 10/28/2
f 11/4/2 12/29/2 17/5/2
f 3/2/2 10/28/2 11/4/2
f 7/6/3 5/19/3 6/7/3
f 16/9/4 23/31/4 18/10/4
f 4/12/4 19/32/4 24/13/4
f 6/15/4 15/33/4 9/16/4
f 1/3/5 3/2/5 4/12/5
f 22/20/6 23/34/6 16/35/6
f 22/20/6 16/35/6 13/18/6
f 2/14/6 24/36/6 21/37/6
f 1/3/6 2/14/6 21/37/6
f 15/38/6 6/7/6 5/19/6
f 14/39/6 15/38/6 5/19/6
f 5/19/6 1/3/6 21/37/6
f 5/19/6 21/37/6 22/20/6
f 13/18/6 14/39/6 5/19/6
f 9/21/5 15/21/5 14/21/5
f 11/21/3 13/21/3 16/21/3
f 10/21/4 14/21/4 13/21/4
f 18/21/5 23/21/5 22/21/5
f 20/21/3 21/21/3 24/21/3
f 17/21/4 22/21/4 21/21/4
