# Blender 4.4.0
# www.blender.org
mtllib Boss_Body.mtl
o 円柱
v 0.000000 0.500000 0.500000
v 0.293893 0.404508 0.500000
v 0.475528 0.154508 0.500000
v 0.475528 -0.154509 0.500000
v 0.293893 -0.404509 0.500000
v 0.000000 -0.500000 0.500000
v -0.293893 -0.404509 0.500000
v -0.475528 -0.154509 0.500000
v -0.475528 0.154508 0.500000
v -0.293893 0.404508 0.500000
v 0.000000 0.500000 0.000000
v 0.293893 0.404509 0.000000
v 0.475528 0.154509 0.000000
v 0.475528 -0.154509 -0.000000
v 0.293893 -0.404509 -0.000000
v 0.000000 -0.500000 -0.000000
v -0.293893 -0.404509 -0.000000
v -0.475528 -0.154509 -0.000000
v -0.475528 0.154509 0.000000
v -0.293893 0.404509 0.000000
v 0.000000 0.500000 0.250000
v 0.293893 0.404509 0.250000
v 0.475528 0.154508 0.250000
v 0.475528 -0.154509 0.250000
v 0.293893 -0.404509 0.250000
v 0.000000 -0.500000 0.250000
v -0.293893 -0.404509 0.250000
v -0.475528 -0.154509 0.250000
v -0.475528 0.154508 0.250000
v -0.293893 0.404509 0.250000
v 0.000000 0.500000 0.375000
v 0.293893 0.404508 0.375000
v 0.475528 0.154508 0.375000
v 0.475528 -0.154509 0.375000
v 0.293893 -0.404509 0.375000
v 0.000000 -0.500000 0.375000
v -0.293893 -0.404509 0.375000
v -0.475528 -0.154509 0.375000
v -0.475528 0.154508 0.375000
v -0.293893 0.404508 0.375000
v 0.327675 0.451005 0.500000
v 0.000000 0.557473 0.500000
v 0.000000 0.557473 0.375000
v 0.530189 0.172269 0.500000
v 0.530189 -0.172269 0.500000
v 0.327675 -0.451005 0.500000
v 0.000000 -0.557473 0.500000
v -0.327675 -0.451005 0.500000
v -0.530189 -0.172269 0.500000
v -0.530189 0.172269 0.500000
v -0.327675 0.451005 0.500000
v 0.327675 0.451005 0.375000
v 0.530189 0.172269 0.375000
v 0.530189 -0.172269 0.375000
v 0.327675 -0.451005 0.375000
v 0.000000 -0.557473 0.375000
v -0.327675 -0.451005 0.375000
v -0.530189 -0.172269 0.375000
v -0.530189 0.172269 0.375000
v -0.327675 0.451005 0.375000
v 0.000000 0.500000 -0.500000
v 0.293893 0.404509 -0.500000
v 0.475528 0.154509 -0.500000
v 0.475528 -0.154508 -0.500000
v 0.293893 -0.404508 -0.500000
v 0.000000 -0.500000 -0.500000
v -0.293893 -0.404508 -0.500000
v -0.475528 -0.154508 -0.500000
v -0.475528 0.154509 -0.500000
v -0.293893 0.404509 -0.500000
v 0.000000 0.500000 -0.250000
v 0.293893 0.404509 -0.250000
v 0.475528 0.154509 -0.250000
v 0.475528 -0.154508 -0.250000
v 0.293893 -0.404509 -0.250000
v 0.000000 -0.500000 -0.250000
v -0.293893 -0.404509 -0.250000
v -0.475528 -0.154508 -0.250000
v -0.475528 0.154509 -0.250000
v -0.293893 0.404509 -0.250000
v 0.000000 0.500000 -0.375000
v 0.293893 0.404509 -0.375000
v 0.475528 0.154509 -0.375000
v 0.475528 -0.154508 -0.375000
v 0.293893 -0.404508 -0.375000
v 0.000000 -0.500000 -0.375000
v -0.293893 -0.404508 -0.375000
v -0.475528 -0.154508 -0.375000
v -0.475528 0.154509 -0.375000
v -0.293893 0.404509 -0.375000
v 0.327675 0.451005 -0.500000
v 0.000000 0.557473 -0.500000
v 0.000000 0.557473 -0.375000
v 0.530189 0.172269 -0.500000
v 0.530189 -0.172269 -0.500000
v 0.327675 -0.451005 -0.500000
v 0.000000 -0.557473 -0.500000
v -0.327675 -0.451005 -0.500000
v -0.530189 -0.172269 -0.500000
v -0.530189 0.172269 -0.500000
v -0.327675 0.451005 -0.500000
v 0.327675 0.451005 -0.375000
v 0.530189 0.172269 -0.375000
v 0.530189 -0.172269 -0.375000
v 0.327675 -0.451005 -0.375000
v 0.000000 -0.557473 -0.375000
v -0.327675 -0.451005 -0.375000
v -0.530189 -0.172269 -0.375000
v -0.530189 0.172269 -0.375000
v -0.327675 0.451005 -0.375000
vn -0.0000 -0.0000 -1.0000
vn -0.0000 -0.0000 1.0000
vn -0.3090 0.9511 -0.0000
vn -0.8090 0.5878 -0.0000
vn -1.0000 -0.0000 -0.0000
vn -0.8090 -0.5878 -0.0000
vn -0.3090 -0.9511 -0.0000
vn 0.3090 -0.9511 -0.0000
vn 0.8090 -0.5878 -0.0000
vn 1.0000 -0.0000 -0.0000
vn 0.8090 0.5878 -0.0000
vn 0.3090 0.9511 -0.0000
vt 0.168880 0.311091
vt 0.080504 0.297877
vt 0.089615 0.285337
vt 0.506639 0.041385
vt 0.595014 0.054600
vt 0.585903 0.067140
vt 0.025885 0.222700
vt 0.040627 0.217910
vt 0.506639 0.311091
vt 0.418263 0.297877
vt 0.427374 0.285337
vt 0.025885 0.129776
vt 0.040627 0.134566
vt 0.168880 0.041385
vt 0.257255 0.054600
vt 0.248144 0.067140
vt 0.634891 0.217910
vt 0.595014 0.297877
vt 0.585903 0.285337
vt 0.378386 0.134566
vt 0.418263 0.054600
vt 0.427374 0.067140
vt 0.634891 0.134566
vt 0.080504 0.054600
vt 0.089615 0.067140
vt 0.297132 0.134566
vt 0.311875 0.129776
vt 0.735116 0.176655
vt 0.802542 0.093311
vt 0.802542 0.176655
vt 0.735116 0.244081
vt 0.802542 0.244081
vt 0.025885 0.764551
vt 0.109228 0.831978
vt 0.025885 0.831978
vt 0.735116 0.363277
vt 0.802542 0.295850
vt 0.802542 0.363277
vt 0.735116 0.446620
vt 0.802542 0.446620
vt 0.735116 0.514047
vt 0.802542 0.514047
vt 0.802542 0.716586
vt 0.869969 0.784013
vt 0.802542 0.784013
vt 0.802542 0.633242
vt 0.869969 0.716586
vt 0.802542 0.565816
vt 0.869969 0.633242
vt 0.735116 0.093311
vt 0.802542 0.025885
vt 0.701402 0.176655
vt 0.701402 0.244081
vt 0.025885 0.730838
vt 0.109228 0.764551
vt 0.701402 0.295850
vt 0.735116 0.295850
vt 0.701402 0.446620
vt 0.701403 0.514047
vt 0.903682 0.716586
vt 0.903682 0.633242
vt 0.903682 0.565816
vt 0.869969 0.565816
vt 0.701402 0.093311
vt 0.735116 0.025885
vt 0.246480 0.806015
vt 0.280193 0.730838
vt 0.280193 0.806015
vt 0.194710 0.730838
vt 0.160997 0.806015
vt 0.160997 0.730838
vt 0.194710 0.806015
vt 0.160997 0.898939
vt 0.194711 0.898939
vt 0.160997 0.974115
vt 0.331962 0.974115
vt 0.365675 0.898939
vt 0.365675 0.974115
vt 0.331962 0.898939
vt 0.365675 0.806015
vt 0.331962 0.806015
vt 0.365675 0.730838
vt 0.701402 0.928705
vt 0.735116 0.835782
vt 0.735116 0.928705
vt 0.246480 0.974116
vt 0.280193 0.898939
vt 0.280193 0.974116
vt 0.246480 0.898939
vt 0.378386 0.217910
vt 0.363644 0.129776
vt 0.649634 0.222700
vt 0.506639 0.025885
vt 0.248144 0.285337
vt 0.168880 0.326592
vt 0.506639 0.326592
vt 0.297132 0.217910
vt 0.257255 0.297877
vt 0.311875 0.222700
vt 0.363644 0.222700
vt 0.649634 0.129776
vt 0.168880 0.025885
vt 0.257255 0.650354
vt 0.168879 0.663568
vt 0.248144 0.637813
vt 0.418263 0.407076
vt 0.506639 0.393862
vt 0.427374 0.419617
vt 0.297132 0.570387
vt 0.595014 0.650354
vt 0.506638 0.663568
vt 0.585903 0.637813
vt 0.311875 0.482253
vt 0.297132 0.487043
vt 0.080504 0.407076
vt 0.168880 0.393862
vt 0.089615 0.419617
vt 0.418263 0.650354
vt 0.378386 0.570387
vt 0.427374 0.637813
vt 0.595014 0.407076
vt 0.634891 0.487043
vt 0.585903 0.419617
vt 0.378386 0.487043
vt 0.257255 0.407076
vt 0.248144 0.419617
vt 0.025885 0.482253
vt 0.040627 0.487043
vt 0.869969 0.176655
vt 0.869969 0.244081
vt 0.109228 0.899404
vt 0.025885 0.899404
vt 0.869969 0.295850
vt 0.869969 0.363277
vt 0.869969 0.446620
vt 0.869969 0.514047
vt 0.735116 0.716586
vt 0.735116 0.633242
vt 0.735116 0.565816
vt 0.869969 0.093311
vt 0.903682 0.176655
vt 0.903682 0.244081
vt 0.025885 0.933117
vt 0.903682 0.363277
vt 0.903682 0.446620
vt 0.903682 0.514047
vt 0.735116 0.784013
vt 0.701403 0.716586
vt 0.701403 0.633242
vt 0.701403 0.565816
vt 0.869969 0.025884
vt 0.903682 0.093311
vt 0.417444 0.730838
vt 0.451157 0.806015
vt 0.417444 0.806015
vt 0.622122 0.806015
vt 0.588408 0.730838
vt 0.622122 0.730838
vt 0.622122 0.898939
vt 0.588408 0.806015
vt 0.622122 0.974115
vt 0.588408 0.898939
vt 0.502926 0.898939
vt 0.536639 0.974116
vt 0.502926 0.974116
vt 0.502926 0.806015
vt 0.536639 0.898939
vt 0.502926 0.730838
vt 0.536639 0.806015
vt 0.786885 0.835782
vt 0.820598 0.928705
vt 0.786885 0.928705
vt 0.417444 0.898939
vt 0.451157 0.974116
vt 0.417444 0.974116
vt 0.451157 0.898939
vt 0.649633 0.482253
vt 0.634891 0.570387
vt 0.363643 0.575177
vt 0.506639 0.378361
vt 0.080504 0.650354
vt 0.089615 0.637813
vt 0.040627 0.570387
vt 0.025885 0.575177
vt 0.649633 0.575177
vt 0.363643 0.482253
vt 0.168880 0.378361
vt 0.109228 0.730838
vt 0.701402 0.363277
vt 0.903682 0.784013
vt 0.701402 0.025885
vt 0.246480 0.730838
vt 0.194711 0.974115
vt 0.331962 0.730838
vt 0.701402 0.835782
vt 0.168879 0.679069
vt 0.311875 0.575177
vt 0.506638 0.679069
vt 0.109228 0.933117
vt 0.903682 0.295850
vt 0.701403 0.784013
vt 0.903682 0.025885
vt 0.451157 0.730838
vt 0.588408 0.974115
vt 0.536639 0.730838
vt 0.820598 0.835782
s 0
usemtl マテリアル
f 36/1/1 57/2/1 37/3/1
f 1/4/2 51/5/2 10/6/2
f 37/3/1 58/7/1 38/8/1
f 6/9/2 46/10/2 5/11/2
f 38/8/1 59/12/1 39/13/1
f 31/14/1 52/15/1 32/16/1
f 8/17/2 48/18/2 7/19/2
f 3/20/2 41/21/2 2/22/2
f 9/23/2 5/11/2 3/20/2
f 39/13/1 60/24/1 40/25/1
f 33/26/1 52/15/1 53/27/1
f 30/28/3 11/29/3 20/30/3
f 29/31/4 20/30/4 19/32/4
f 28/33/5 19/34/5 18/35/5
f 27/36/6 18/37/6 17/38/6
f 26/39/7 17/38/7 16/40/7
f 25/41/8 16/40/8 15/42/8
f 14/43/9 25/44/9 15/45/9
f 13/46/10 24/47/10 14/43/10
f 12/48/11 23/49/11 13/46/11
f 21/50/12 12/51/12 11/29/12
f 40/52/3 21/50/3 30/28/3
f 39/53/4 30/28/4 29/31/4
f 38/54/5 29/55/5 28/33/5
f 27/36/6 38/56/6 28/57/6
f 36/58/7 27/36/7 26/39/7
f 35/59/8 26/39/8 25/41/8
f 34/60/9 25/44/9 24/47/9
f 33/61/10 24/47/10 23/49/10
f 32/62/11 23/49/11 22/63/11
f 31/64/12 22/65/12 21/50/12
f 42/66/12 52/67/12 43/68/12
f 41/69/11 53/70/11 52/71/11
f 44/72/10 54/73/10 53/70/10
f 45/74/9 55/75/9 54/73/9
f 46/76/8 56/77/8 55/78/8
f 47/79/7 57/80/7 56/77/7
f 48/81/6 58/82/6 57/80/6
f 49/83/5 59/84/5 58/85/5
f 50/86/4 60/87/4 59/88/4
f 51/89/3 43/68/3 60/87/3
f 4/90/2 44/91/2 3/20/2
f 9/23/2 49/92/2 8/17/2
f 1/4/2 41/21/2 42/93/2
f 35/94/1 56/95/1 36/1/1
f 7/19/2 47/96/2 6/9/2
f 34/97/1 55/98/1 35/94/1
f 33/26/1 54/99/1 34/97/1
f 5/11/2 45/100/2 4/90/2
f 10/6/2 50/101/2 9/23/2
f 31/14/1 60/24/1 43/102/1
f 107/103/2 86/104/2 87/105/2
f 101/106/1 61/107/1 70/108/1
f 88/109/2 107/103/2 87/105/2
f 96/110/1 66/111/1 65/112/1
f 109/113/2 88/109/2 89/114/2
f 102/115/2 81/116/2 82/117/2
f 98/118/1 68/119/1 67/120/1
f 91/121/1 63/122/1 62/123/1
f 65/112/1 69/124/1 61/107/1
f 110/125/2 89/114/2 90/126/2
f 103/127/2 82/117/2 83/128/2
f 11/29/3 80/129/3 20/30/3
f 19/32/4 80/129/4 79/130/4
f 18/35/5 79/131/5 78/132/5
f 17/38/6 78/133/6 77/134/6
f 17/38/7 76/135/7 16/40/7
f 16/40/8 75/136/8 15/42/8
f 15/45/9 74/137/9 14/43/9
f 14/43/10 73/138/10 13/46/10
f 13/46/11 72/139/11 12/48/11
f 12/51/12 71/140/12 11/29/12
f 71/140/3 90/141/3 80/129/3
f 80/129/4 89/142/4 79/130/4
f 79/131/5 88/143/5 78/132/5
f 78/133/6 87/144/6 77/134/6
f 77/134/7 86/145/7 76/135/7
f 76/135/8 85/146/8 75/136/8
f 75/147/9 84/148/9 74/137/9
f 74/137/10 83/149/10 73/138/10
f 72/139/11 83/149/11 82/150/11
f 72/151/12 81/152/12 71/140/12
f 102/153/12 92/154/12 93/155/12
f 103/156/11 91/157/11 102/158/11
f 104/159/10 94/160/10 103/156/10
f 105/161/9 95/162/9 104/159/9
f 106/163/8 96/164/8 105/165/8
f 107/166/7 97/167/7 106/163/7
f 108/168/6 98/169/6 107/166/6
f 109/170/5 99/171/5 108/172/5
f 110/173/4 100/174/4 109/175/4
f 93/155/3 101/176/3 110/173/3
f 94/177/1 64/178/1 63/122/1
f 99/179/1 69/124/1 68/119/1
f 92/180/1 62/123/1 61/107/1
f 86/104/2 105/181/2 85/182/2
f 66/111/1 98/118/1 67/120/1
f 105/181/2 84/183/2 85/182/2
f 104/184/2 83/128/2 84/183/2
f 95/185/1 65/112/1 64/178/1
f 100/186/1 70/108/1 69/124/1
f 93/187/2 90/126/2 81/116/2
f 36/1/1 56/95/1 57/2/1
f 1/4/2 42/93/2 51/5/2
f 37/3/1 57/2/1 58/7/1
f 6/9/2 47/96/2 46/10/2
f 38/8/1 58/7/1 59/12/1
f 31/14/1 43/102/1 52/15/1
f 8/17/2 49/92/2 48/18/2
f 3/20/2 44/91/2 41/21/2
f 3/20/2 2/22/2 1/4/2
f 1/4/2 10/6/2 9/23/2
f 9/23/2 8/17/2 7/19/2
f 7/19/2 6/9/2 5/11/2
f 5/11/2 4/90/2 3/20/2
f 3/20/2 1/4/2 9/23/2
f 9/23/2 7/19/2 5/11/2
f 39/13/1 59/12/1 60/24/1
f 33/26/1 32/16/1 52/15/1
f 30/28/3 21/50/3 11/29/3
f 29/31/4 30/28/4 20/30/4
f 28/33/5 29/55/5 19/34/5
f 27/36/6 28/57/6 18/37/6
f 26/39/7 27/36/7 17/38/7
f 25/41/8 26/39/8 16/40/8
f 14/43/9 24/47/9 25/44/9
f 13/46/10 23/49/10 24/47/10
f 12/48/11 22/63/11 23/49/11
f 21/50/12 22/65/12 12/51/12
f 40/52/3 31/64/3 21/50/3
f 39/53/4 40/52/4 30/28/4
f 38/54/5 39/188/5 29/55/5
f 27/36/6 37/189/6 38/56/6
f 36/58/7 37/189/7 27/36/7
f 35/59/8 36/58/8 26/39/8
f 34/60/9 35/190/9 25/44/9
f 33/61/10 34/60/10 24/47/10
f 32/62/11 33/61/11 23/49/11
f 31/64/12 32/191/12 22/65/12
f 42/66/12 41/192/12 52/67/12
f 41/69/11 44/72/11 53/70/11
f 44/72/10 45/74/10 54/73/10
f 45/74/9 46/193/9 55/75/9
f 46/76/8 47/79/8 56/77/8
f 47/79/7 48/81/7 57/80/7
f 48/81/6 49/194/6 58/82/6
f 49/83/5 50/195/5 59/84/5
f 50/86/4 51/89/4 60/87/4
f 51/89/3 42/66/3 43/68/3
f 4/90/2 45/100/2 44/91/2
f 9/23/2 50/101/2 49/92/2
f 1/4/2 2/22/2 41/21/2
f 35/94/1 55/98/1 56/95/1
f 7/19/2 48/18/2 47/96/2
f 34/97/1 54/99/1 55/98/1
f 33/26/1 53/27/1 54/99/1
f 5/11/2 46/10/2 45/100/2
f 10/6/2 51/5/2 50/101/2
f 31/14/1 40/25/1 60/24/1
f 107/103/2 106/196/2 86/104/2
f 101/106/1 92/180/1 61/107/1
f 88/109/2 108/197/2 107/103/2
f 96/110/1 97/198/1 66/111/1
f 109/113/2 108/197/2 88/109/2
f 102/115/2 93/187/2 81/116/2
f 98/118/1 99/179/1 68/119/1
f 91/121/1 94/177/1 63/122/1
f 61/107/1 62/123/1 63/122/1
f 63/122/1 64/178/1 65/112/1
f 65/112/1 66/111/1 67/120/1
f 67/120/1 68/119/1 69/124/1
f 69/124/1 70/108/1 61/107/1
f 61/107/1 63/122/1 65/112/1
f 65/112/1 67/120/1 69/124/1
f 110/125/2 109/113/2 89/114/2
f 103/127/2 102/115/2 82/117/2
f 11/29/3 71/140/3 80/129/3
f 19/32/4 20/30/4 80/129/4
f 18/35/5 19/34/5 79/131/5
f 17/38/6 18/37/6 78/133/6
f 17/38/7 77/134/7 76/135/7
f 16/40/8 76/135/8 75/136/8
f 15/45/9 75/147/9 74/137/9
f 14/43/10 74/137/10 73/138/10
f 13/46/11 73/138/11 72/139/11
f 12/51/12 72/151/12 71/140/12
f 71/140/3 81/152/3 90/141/3
f 80/129/4 90/141/4 89/142/4
f 79/131/5 89/199/5 88/143/5
f 78/133/6 88/200/6 87/144/6
f 77/134/7 87/144/7 86/145/7
f 76/135/8 86/145/8 85/146/8
f 75/147/9 85/201/9 84/148/9
f 74/137/10 84/148/10 83/149/10
f 72/139/11 73/138/11 83/149/11
f 72/151/12 82/202/12 81/152/12
f 102/153/12 91/203/12 92/154/12
f 103/156/11 94/160/11 91/157/11
f 104/159/10 95/162/10 94/160/10
f 105/161/9 96/204/9 95/162/9
f 106/163/8 97/167/8 96/164/8
f 107/166/7 98/169/7 97/167/7
f 108/168/6 99/205/6 98/169/6
f 109/170/5 100/206/5 99/171/5
f 110/173/4 101/176/4 100/174/4
f 93/155/3 92/154/3 101/176/3
f 94/177/1 95/185/1 64/178/1
f 99/179/1 100/186/1 69/124/1
f 92/180/1 91/121/1 62/123/1
f 86/104/2 106/196/2 105/181/2
f 66/111/1 97/198/1 98/118/1
f 105/181/2 104/184/2 84/183/2
f 104/184/2 103/127/2 83/128/2
f 95/185/1 96/110/1 65/112/1
f 100/186/1 101/106/1 70/108/1
f 93/187/2 110/125/2 90/126/2
